<svg width="1261" height="678" viewBox="0 0 1261 678" fill="none" xmlns="http://www.w3.org/2000/svg">
<path d="M132.786 265.186C133.004 284.809 127.989 300.072 117.741 310.974C107.493 321.658 93.539 327 75.8778 327H29.1083C26.9279 327 25.8377 325.91 25.8377 323.729V101.329C25.8377 99.1487 26.9279 98.0585 29.1083 98.0585H73.9154C92.0127 98.0585 106.185 103.182 116.433 113.43C126.681 123.678 131.805 138.287 131.805 157.256C131.805 182.331 122.429 199.229 103.678 207.95C103.242 208.168 102.915 208.386 102.697 208.605C102.697 208.823 102.806 209.041 103.024 209.259C112.617 214.056 119.922 221.251 124.937 230.845C130.17 240.22 132.786 251.667 132.786 265.186ZM44.4801 113.43C43.6079 113.43 43.1718 113.866 43.1718 114.739V200.428C43.1718 201.3 43.6079 201.736 44.4801 201.736H74.2425C87.1068 201.736 97.0276 197.921 104.005 190.289C111.2 182.658 114.798 171.974 114.798 158.237C114.798 144.065 111.2 133.054 104.005 125.204C96.8096 117.355 86.8888 113.43 74.2425 113.43H44.4801ZM74.8966 311.301C87.7609 311.301 97.6817 307.158 104.659 298.873C111.854 290.587 115.452 278.922 115.452 263.878C115.452 248.615 111.854 236.732 104.659 228.228C97.4637 219.725 87.5429 215.473 74.8966 215.473H44.4801C43.6079 215.473 43.1718 215.909 43.1718 216.781V309.993C43.1718 310.865 43.6079 311.301 44.4801 311.301H74.8966ZM180.654 327C178.474 327 177.384 325.91 177.384 323.729V101.329C177.384 99.1487 178.474 98.0585 180.654 98.0585H191.447C193.628 98.0585 194.718 99.1487 194.718 101.329V310.32C194.718 311.192 195.154 311.628 196.026 311.628H272.558C274.738 311.628 275.829 312.718 275.829 314.899V323.729C275.829 325.91 274.738 327 272.558 327H180.654ZM410.15 110.16C410.15 112.34 409.06 113.43 406.88 113.43H329.367C328.494 113.43 328.058 113.866 328.058 114.739V203.372C328.058 204.244 328.494 204.68 329.367 204.68H379.08C381.26 204.68 382.35 205.77 382.35 207.95V216.781C382.35 218.961 381.26 220.052 379.08 220.052H329.367C328.494 220.052 328.058 220.488 328.058 221.36V310.32C328.058 311.192 328.494 311.628 329.367 311.628H406.88C409.06 311.628 410.15 312.718 410.15 314.899V323.729C410.15 325.91 409.06 327 406.88 327H313.995C311.814 327 310.724 325.91 310.724 323.729V101.329C310.724 99.1487 311.814 98.0585 313.995 98.0585H406.88C409.06 98.0585 410.15 99.1487 410.15 101.329V110.16ZM556.267 110.16C556.267 112.34 555.176 113.43 552.996 113.43H475.483C474.611 113.43 474.175 113.866 474.175 114.739V203.372C474.175 204.244 474.611 204.68 475.483 204.68H525.196C527.376 204.68 528.466 205.77 528.466 207.95V216.781C528.466 218.961 527.376 220.052 525.196 220.052H475.483C474.611 220.052 474.175 220.488 474.175 221.36V310.32C474.175 311.192 474.611 311.628 475.483 311.628H552.996C555.176 311.628 556.267 312.718 556.267 314.899V323.729C556.267 325.91 555.176 327 552.996 327H460.111C457.931 327 456.84 325.91 456.84 323.729V101.329C456.84 99.1487 457.931 98.0585 460.111 98.0585H552.996C555.176 98.0585 556.267 99.1487 556.267 101.329V110.16ZM606.227 327C604.047 327 602.957 325.91 602.957 323.729V101.329C602.957 99.1487 604.047 98.0585 606.227 98.0585H654.305C670.44 98.0585 683.195 103.509 692.571 114.411C701.947 125.095 706.635 139.704 706.635 158.237V266.821C706.635 285.354 701.947 300.072 692.571 310.974C683.195 321.658 670.44 327 654.305 327H606.227ZM620.291 310.32C620.291 311.192 620.727 311.628 621.599 311.628H654.305C664.989 311.41 673.384 307.376 679.489 299.527C685.812 291.46 688.973 280.449 688.973 266.494V158.892C688.973 144.719 685.812 133.599 679.489 125.531C673.384 117.464 664.88 113.43 653.978 113.43H621.599C620.727 113.43 620.291 113.866 620.291 114.739V310.32Z" fill="black"/>
<path d="M949.975 321.651C950.614 322.496 950.934 323.342 950.937 324.19C950.943 325.673 949.886 326.418 947.767 326.426L916.303 326.537C914.396 326.544 912.804 325.808 911.527 324.329L902.267 311.967C901.629 311.334 900.887 311.23 900.041 311.657C884.827 323.576 867.368 329.571 847.663 329.641C829.441 329.705 815.017 325.095 804.39 315.809C793.974 306.523 788.735 292.981 788.672 275.183C788.623 261.199 791.759 249.322 798.081 239.553C804.402 229.572 813.056 220.219 824.043 211.493C824.889 210.854 824.992 210.112 824.353 209.267C814.133 195.107 807.528 184.748 804.538 178.19C801.548 171.42 800.039 164.116 800.011 156.276C799.952 139.749 804.779 126.595 814.491 116.814C824.414 106.82 837.533 101.795 853.848 101.737C864.654 101.699 874.303 103.995 882.795 108.627C891.286 113.046 897.983 119.379 902.885 127.625C907.788 135.871 910.258 145.397 910.297 156.203C910.343 169.34 906.993 180.688 900.247 190.246C893.711 199.592 884.738 208.629 873.327 217.357C872.482 217.996 872.379 218.738 873.017 219.583C873.869 220.851 877.915 226.346 885.153 236.067L901.76 258.574C902.185 258.996 902.61 259.206 903.033 259.205C903.457 259.203 903.774 258.99 903.985 258.566C909.255 251.131 914.1 243.063 918.519 234.36C919.782 232.024 921.581 231.488 923.916 232.751L945.572 245.07C947.696 246.546 948.126 248.239 946.861 250.151C939.706 263.948 932.333 275.946 924.741 286.143C924.108 286.993 924.005 287.735 924.431 288.369C929.751 294.919 938.266 306.013 949.975 321.651ZM854.92 135.105C849.411 135.124 844.969 137.259 841.594 141.509C838.43 145.546 836.86 150.848 836.883 157.417C836.899 162.078 837.656 166.313 839.153 170.122C840.861 173.93 844.803 180.272 850.98 189.149C851.619 190.207 852.361 190.416 853.207 189.777C859.756 184.457 864.717 179.142 868.088 173.833C871.671 168.523 873.452 162.796 873.43 156.652C873.408 150.295 871.588 145.11 867.972 141.097C864.568 137.084 860.217 135.086 854.92 135.105ZM851.046 297.846C860.581 297.812 870.313 293.646 880.242 285.347C881.088 284.709 881.191 283.967 880.552 283.122L868.739 267.908L846.708 239.381C846.069 238.536 845.327 238.433 844.482 239.071C831.806 249.71 825.489 260.751 825.53 272.192C825.556 279.608 827.802 285.745 832.269 290.602C836.736 295.46 842.995 297.875 851.046 297.846Z" fill="black"/>
<path d="M124.69 386.605C125.78 384.86 127.415 383.988 129.596 383.988H159.685C160.775 383.988 161.648 384.424 162.302 385.296C163.174 385.951 163.61 386.823 163.61 387.913V609.005C163.61 610.095 163.174 611.076 162.302 611.949C161.648 612.603 160.775 612.93 159.685 612.93H129.596C128.506 612.93 127.524 612.603 126.652 611.949C125.998 611.076 125.671 610.095 125.671 609.005V454.633C125.671 453.761 125.453 453.325 125.017 453.325C124.581 453.325 124.145 453.652 123.709 454.306L95.2545 505.981C94.1643 507.726 93.1831 508.598 92.311 508.598C91.4388 508.598 90.4577 507.726 89.3675 505.981L60.9133 454.306C60.4772 453.652 60.0411 453.325 59.6051 453.325C59.169 453.325 58.9509 453.761 58.9509 454.633V609.005C58.9509 610.095 58.5149 611.076 57.6427 611.949C56.9886 612.603 56.1164 612.93 55.0262 612.93H24.9368C23.8466 612.93 22.8654 612.603 21.9932 611.949C21.3391 611.076 21.0121 610.095 21.0121 609.005V387.913C21.0121 386.823 21.3391 385.951 21.9932 385.296C22.8654 384.424 23.8466 383.988 24.9368 383.988H55.0262C57.2066 383.988 58.8419 384.86 59.9321 386.605L91.6569 442.532C92.311 443.404 92.9651 443.404 93.6192 442.532L124.69 386.605ZM317.029 612.93C314.412 612.93 312.995 611.73 312.777 609.332L306.563 574.991C306.563 573.901 305.909 573.356 304.601 573.356H256.85C255.542 573.356 254.888 573.901 254.888 574.991L248.673 609.332C248.455 611.73 247.038 612.93 244.422 612.93H214.659C211.607 612.93 210.407 611.512 211.062 608.678L259.466 387.586C259.902 385.187 261.32 383.988 263.718 383.988H298.386C300.785 383.988 302.202 385.187 302.638 387.586L351.043 608.678V609.986C351.043 611.949 349.844 612.93 347.445 612.93H317.029ZM260.775 541.958C260.557 543.048 261.102 543.593 262.41 543.593H298.714C300.022 543.593 300.567 543.048 300.349 541.958L281.379 438.607C281.161 437.953 280.834 437.626 280.398 437.626C279.962 437.626 279.635 437.953 279.417 438.607L260.775 541.958ZM490.061 612.93C487.881 612.93 486.463 611.839 485.809 609.659L458.009 515.793C457.573 514.921 457.028 514.485 456.374 514.485H439.04C437.95 514.485 437.405 515.03 437.405 516.12V609.005C437.405 610.095 436.968 611.076 436.096 611.949C435.442 612.603 434.57 612.93 433.48 612.93H403.39C402.3 612.93 401.319 612.603 400.447 611.949C399.793 611.076 399.466 610.095 399.466 609.005V387.913C399.466 386.823 399.793 385.951 400.447 385.296C401.319 384.424 402.3 383.988 403.39 383.988H464.878C476.434 383.988 486.572 386.823 495.294 392.492C504.234 397.943 511.102 405.792 515.899 416.04C520.914 426.07 523.421 437.626 523.421 450.708C523.421 464.227 520.805 475.892 515.572 485.704C510.339 495.515 503.034 502.929 493.659 507.944C492.787 508.162 492.46 508.816 492.678 509.906L524.729 608.351C524.947 608.787 525.056 609.332 525.056 609.986C525.056 611.949 523.857 612.93 521.459 612.93H490.061ZM439.04 416.694C437.95 416.694 437.405 417.239 437.405 418.329V483.414C437.405 484.504 437.95 485.049 439.04 485.049H458.99C466.84 485.049 473.163 481.997 477.96 475.892C482.975 469.787 485.482 461.501 485.482 451.035C485.482 440.569 482.975 432.284 477.96 426.179C473.163 419.856 466.84 416.694 458.99 416.694H439.04ZM633.947 615.546C615.413 615.546 600.478 610.204 589.14 599.52C578.02 588.618 572.46 574.228 572.46 556.348V440.569C572.46 422.69 578.02 408.409 589.14 397.725C600.478 386.823 615.413 381.372 633.947 381.372C652.48 381.372 667.416 386.823 678.754 397.725C690.31 408.409 696.088 422.799 696.088 440.896V453.652C696.088 454.742 695.652 455.723 694.78 456.595C694.126 457.249 693.253 457.577 692.163 457.577H662.074C660.984 457.577 660.002 457.249 659.13 456.595C658.476 455.723 658.149 454.742 658.149 453.652V440.242C658.149 432.393 655.86 426.07 651.281 421.273C646.92 416.476 641.142 414.078 633.947 414.078C626.751 414.078 620.973 416.476 616.613 421.273C612.252 426.07 610.071 432.393 610.071 440.242V556.675C610.071 564.525 612.252 570.848 616.613 575.645C620.973 580.442 626.751 582.84 633.947 582.84C641.142 582.84 646.92 580.442 651.281 575.645C655.86 570.848 658.149 564.525 658.149 556.675V525.278C658.149 524.188 657.604 523.642 656.514 523.642H636.563C635.473 523.642 634.492 523.315 633.62 522.661C632.966 521.789 632.638 520.808 632.638 519.718V495.842C632.638 494.752 632.966 493.88 633.62 493.226C634.492 492.354 635.473 491.918 636.563 491.918H692.163C693.253 491.918 694.126 492.354 694.78 493.226C695.652 493.88 696.088 494.752 696.088 495.842V556.348C696.088 574.228 690.31 588.618 678.754 599.52C667.416 610.204 652.48 615.546 633.947 615.546ZM757.547 612.93C756.457 612.93 755.476 612.603 754.604 611.949C753.949 611.076 753.622 610.095 753.622 609.005V387.913C753.622 386.823 753.949 385.951 754.604 385.296C755.476 384.424 756.457 383.988 757.547 383.988H787.636C788.727 383.988 789.599 384.424 790.253 385.296C791.125 385.951 791.561 386.823 791.561 387.913V609.005C791.561 610.095 791.125 611.076 790.253 611.949C789.599 612.603 788.727 612.93 787.636 612.93H757.547ZM945.813 387.913C945.813 386.823 946.14 385.951 946.794 385.296C947.666 384.424 948.648 383.988 949.738 383.988H979.5C980.59 383.988 981.463 384.424 982.117 385.296C982.989 385.951 983.425 386.823 983.425 387.913V609.005C983.425 610.095 982.989 611.076 982.117 611.949C981.463 612.603 980.59 612.93 979.5 612.93H945.159C942.979 612.93 941.561 611.839 940.907 609.659L892.175 470.986C891.957 470.332 891.521 470.114 890.867 470.332C890.431 470.332 890.213 470.659 890.213 471.313L890.54 609.005C890.54 610.095 890.104 611.076 889.232 611.949C888.578 612.603 887.706 612.93 886.615 612.93H856.853C855.763 612.93 854.782 612.603 853.909 611.949C853.255 611.076 852.928 610.095 852.928 609.005V387.913C852.928 386.823 853.255 385.951 853.909 385.296C854.782 384.424 855.763 383.988 856.853 383.988H890.54C892.72 383.988 894.138 385.078 894.792 387.259L943.851 524.951C944.069 525.605 944.396 525.932 944.832 525.932C945.486 525.714 945.813 525.278 945.813 524.624V387.913ZM1098.82 615.546C1080.73 615.546 1066.12 610.095 1055 599.193C1043.88 588.291 1038.32 574.01 1038.32 556.348V547.845C1038.32 546.755 1038.64 545.883 1039.3 545.228C1040.17 544.356 1041.15 543.92 1042.24 543.92H1072C1073.09 543.92 1073.97 544.356 1074.62 545.228C1075.49 545.883 1075.93 546.755 1075.93 547.845V554.386C1075.93 562.89 1078 569.758 1082.14 574.991C1086.5 580.224 1092.06 582.84 1098.82 582.84C1105.58 582.84 1111.14 580.442 1115.5 575.645C1119.86 570.63 1122.04 564.089 1122.04 556.021C1122.04 550.352 1120.85 545.446 1118.45 541.304C1116.05 537.161 1112.67 533.236 1108.31 529.53C1103.95 525.823 1096.97 520.481 1087.38 513.504C1076.47 505.654 1067.64 498.677 1060.88 492.572C1054.34 486.467 1048.78 479.162 1044.2 470.659C1039.84 461.937 1037.66 451.907 1037.66 440.569C1037.66 422.472 1043.11 408.082 1054.02 397.398C1064.92 386.714 1079.31 381.372 1097.19 381.372C1115.29 381.372 1129.89 387.041 1141.01 398.379C1152.13 409.499 1157.69 424.325 1157.69 442.859V450.708C1157.69 451.798 1157.26 452.78 1156.39 453.652C1155.73 454.306 1154.86 454.633 1153.77 454.633H1124.33C1123.24 454.633 1122.26 454.306 1121.39 453.652C1120.74 452.78 1120.41 451.798 1120.41 450.708V442.205C1120.41 433.701 1118.23 426.942 1113.87 421.927C1109.73 416.694 1104.17 414.078 1097.19 414.078C1090.65 414.078 1085.3 416.476 1081.16 421.273C1077.02 425.852 1074.95 432.284 1074.95 440.569C1074.95 448.419 1077.13 455.069 1081.49 460.52C1086.07 465.971 1094.9 473.493 1107.98 483.087C1121.28 492.899 1131.31 500.966 1138.07 507.29C1144.83 513.395 1150.06 520.154 1153.77 527.567C1157.48 534.981 1159.33 543.811 1159.33 554.059C1159.33 572.592 1153.77 587.528 1142.65 598.866C1131.53 609.986 1116.92 615.546 1098.82 615.546Z" fill="black"/>
</svg>
